<svg width="30" height="31" viewBox="0 0 30 31" fill="none" xmlns="http://www.w3.org/2000/svg">
<g clip-path="url(#clip0_76_11229)">
<path d="M15 2.88281C18.2323 2.88281 21.3323 4.16685 23.6179 6.45245C25.9035 8.73805 27.1875 11.838 27.1875 15.0703C27.1875 18.3026 25.9035 21.4026 23.6179 23.6882C21.3323 25.9738 18.2323 27.2578 15 27.2578C11.7677 27.2578 8.66774 25.9738 6.38214 23.6882C4.09654 21.4026 2.8125 18.3026 2.8125 15.0703C2.8125 11.838 4.09654 8.73805 6.38214 6.45245C8.66774 4.16685 11.7677 2.88281 15 2.88281ZM15 30.0703C18.9782 30.0703 22.7936 28.49 25.6066 25.6769C28.4196 22.8639 30 19.0486 30 15.0703C30 11.0921 28.4196 7.27676 25.6066 4.46371C22.7936 1.65067 18.9782 0.0703125 15 0.0703125C11.0218 0.0703125 7.20644 1.65067 4.3934 4.46371C1.58035 7.27676 0 11.0921 0 15.0703C0 19.0486 1.58035 22.8639 4.3934 25.6769C7.20644 28.49 11.0218 30.0703 15 30.0703ZM10.2539 10.3242C9.70312 10.875 9.70312 11.7656 10.2539 12.3105L13.0078 15.0645L10.2539 17.8184C9.70312 18.3691 9.70312 19.2598 10.2539 19.8047C10.8047 20.3496 11.6953 20.3555 12.2402 19.8047L14.9941 17.0508L17.748 19.8047C18.2988 20.3555 19.1895 20.3555 19.7344 19.8047C20.2793 19.2539 20.2852 18.3633 19.7344 17.8184L16.9805 15.0645L19.7344 12.3105C20.2852 11.7598 20.2852 10.8691 19.7344 10.3242C19.1836 9.7793 18.293 9.77344 17.748 10.3242L14.9941 13.0781L12.2402 10.3242C11.6895 9.77344 10.7988 9.77344 10.2539 10.3242Z" fill="black"/>
</g>
<defs>
<clipPath id="clip0_76_11229">
<rect width="30" height="30" fill="white" transform="translate(0 0.0703125)"/>
</clipPath>
</defs>
</svg>
