<svg width="28" height="28" viewBox="0 0 28 28" fill="none" xmlns="http://www.w3.org/2000/svg">
<rect width="28" height="28" rx="14" fill="#424141"/>
<g clip-path="url(#clip0_38_2251)">
<path d="M21.4556 13.1283L9.72935 7.40814C9.6285 7.35894 9.51776 7.33337 9.40555 7.33337C8.99766 7.33337 8.66699 7.66404 8.66699 8.07193V8.09325C8.66699 8.19235 8.67914 8.29108 8.70318 8.38723L9.82801 12.8865C9.85873 13.0094 9.96264 13.1002 10.0885 13.1142L15.0325 13.6636C15.204 13.6826 15.3337 13.8275 15.3337 14C15.3337 14.1726 15.204 14.3175 15.0325 14.3365L10.0885 14.8859C9.96264 14.8999 9.85873 14.9906 9.82801 15.1136L8.70318 19.6128C8.67914 19.709 8.66699 19.8077 8.66699 19.9068V19.9282C8.66699 20.336 8.99766 20.6667 9.40555 20.6667C9.51776 20.6667 9.6285 20.6411 9.72935 20.5919L21.4556 14.8718C21.7889 14.7093 22.0003 14.3709 22.0003 14C22.0003 13.6292 21.7889 13.2908 21.4556 13.1283Z" fill="white"/>
</g>
<defs>
<clipPath id="clip0_38_2251">
<rect width="16" height="16" fill="white" transform="translate(6 6)"/>
</clipPath>
</defs>
</svg>
