<svg width="32" height="32" viewBox="0 0 32 32" fill="none" xmlns="http://www.w3.org/2000/svg">
<rect x="0.5" y="0.5" width="31" height="31" rx="15.5" fill="white"/>
<rect x="0.5" y="0.5" width="31" height="31" rx="15.5" stroke="black"/>
<g clip-path="url(#clip0_38_8050)">
<path d="M23.2 16.8001H8.8C8.58783 16.8001 8.38434 16.7158 8.23431 16.5658C8.08429 16.4158 8 16.2123 8 16.0001C8 15.7879 8.08429 15.5844 8.23431 15.4344C8.38434 15.2844 8.58783 15.2001 8.8 15.2001H23.2C23.4122 15.2001 23.6157 15.2844 23.7657 15.4344C23.9157 15.5844 24 15.7879 24 16.0001C24 16.2123 23.9157 16.4158 23.7657 16.5658C23.6157 16.7158 23.4122 16.8001 23.2 16.8001ZM23.2 11.2001H8.8C8.58783 11.2001 8.38434 11.1158 8.23431 10.9658C8.08429 10.8158 8 10.6123 8 10.4001C8 10.1879 8.08429 9.98444 8.23431 9.83441C8.38434 9.68439 8.58783 9.6001 8.8 9.6001H23.2C23.4122 9.6001 23.6157 9.68439 23.7657 9.83441C23.9157 9.98444 24 10.1879 24 10.4001C24 10.6123 23.9157 10.8158 23.7657 10.9658C23.6157 11.1158 23.4122 11.2001 23.2 11.2001ZM23.2 22.4001H8.8C8.58783 22.4001 8.38434 22.3158 8.23431 22.1658C8.08429 22.0158 8 21.8123 8 21.6001C8 21.3879 8.08429 21.1844 8.23431 21.0344C8.38434 20.8844 8.58783 20.8001 8.8 20.8001H23.2C23.4122 20.8001 23.6157 20.8844 23.7657 21.0344C23.9157 21.1844 24 21.3879 24 21.6001C24 21.8123 23.9157 22.0158 23.7657 22.1658C23.6157 22.3158 23.4122 22.4001 23.2 22.4001Z" fill="black"/>
</g>
<defs>
<clipPath id="clip0_38_8050">
<rect width="16" height="16" fill="white" transform="translate(8 8)"/>
</clipPath>
</defs>
</svg>
