<svg width="20" height="21" viewBox="0 0 20 21" fill="none" xmlns="http://www.w3.org/2000/svg">
<g clip-path="url(#clip0_95_16777)">
<path d="M10 1.91211C12.1549 1.91211 14.2215 2.76813 15.7452 4.29187C17.269 5.8156 18.125 7.88223 18.125 10.0371C18.125 12.192 17.269 14.2586 15.7452 15.7824C14.2215 17.3061 12.1549 18.1621 10 18.1621C7.84512 18.1621 5.77849 17.3061 4.25476 15.7824C2.73102 14.2586 1.875 12.192 1.875 10.0371C1.875 7.88223 2.73102 5.8156 4.25476 4.29187C5.77849 2.76813 7.84512 1.91211 10 1.91211ZM10 20.0371C12.6522 20.0371 15.1957 18.9835 17.0711 17.1082C18.9464 15.2328 20 12.6893 20 10.0371C20 7.38494 18.9464 4.84141 17.0711 2.96604C15.1957 1.09068 12.6522 0.0371094 10 0.0371094C7.34784 0.0371094 4.8043 1.09068 2.92893 2.96604C1.05357 4.84141 0 7.38494 0 10.0371C0 12.6893 1.05357 15.2328 2.92893 17.1082C4.8043 18.9835 7.34784 20.0371 10 20.0371ZM14.4141 8.20117C14.7812 7.83398 14.7812 7.24023 14.4141 6.87695C14.0469 6.51367 13.4531 6.50977 13.0898 6.87695L8.75391 11.2129L6.91797 9.37695C6.55078 9.00977 5.95703 9.00977 5.59375 9.37695C5.23047 9.74414 5.22656 10.3379 5.59375 10.7012L8.09375 13.2012C8.46094 13.5684 9.05469 13.5684 9.41797 13.2012L14.4141 8.20117Z" fill="black"/>
</g>
<defs>
<clipPath id="clip0_95_16777">
<rect width="20" height="20" fill="white" transform="translate(0 0.0371094)"/>
</clipPath>
</defs>
</svg>
