<svg width="21" height="21" viewBox="0 0 21 21" fill="none" xmlns="http://www.w3.org/2000/svg">
<g clip-path="url(#clip0_76_12576)">
<path d="M10.4575 2.375C14.9458 2.375 18.5825 6.01172 18.5825 10.5C18.5825 14.9883 14.9458 18.625 10.4575 18.625C5.96924 18.625 2.33252 14.9883 2.33252 10.5C2.33252 6.01172 5.96924 2.375 10.4575 2.375ZM10.4575 20.5C15.981 20.5 20.4575 16.0234 20.4575 10.5C20.4575 4.97656 15.981 0.5 10.4575 0.5C4.93408 0.5 0.45752 4.97656 0.45752 10.5C0.45752 16.0234 4.93408 20.5 10.4575 20.5Z" fill="black"/>
<path d="M10.438 16.4062C9.75049 16.4062 9.27002 15.9102 9.27002 15.1836C9.27002 14.4961 9.74658 13.9609 10.438 13.9609C11.1255 13.9609 11.645 14.4961 11.645 15.1836C11.645 15.9102 11.1255 16.4062 10.438 16.4062ZM10.4185 4.41406C10.9341 4.41406 11.5083 4.52734 11.5278 5.06641C11.5278 5.25781 11.5083 5.52734 11.4692 5.8125C11.3364 7.28516 10.9536 10.7305 10.8013 13.0039H10.0552C9.8833 10.7266 9.53955 7.37891 9.38721 5.82812C9.36768 5.57812 9.32861 5.23438 9.32861 5.04297C9.32861 4.54688 9.8833 4.41406 10.4185 4.41406Z" fill="black"/>
</g>
<defs>
<clipPath id="clip0_76_12576">
<rect width="20" height="20" fill="white" transform="translate(0.45752 0.5)"/>
</clipPath>
</defs>
</svg>
