<svg width="32" height="32" viewBox="0 0 32 32" fill="none" xmlns="http://www.w3.org/2000/svg">
<rect x="0.5" y="0.5" width="31" height="31" rx="15.5" fill="white"/>
<rect x="0.5" y="0.5" width="31" height="31" rx="15.5" stroke="black"/>
<g clip-path="url(#clip0_95_17332)">
<path d="M22.41 22.6898L9.33002 10.4798C9.14002 10.2998 9.02002 10.0698 9.00002 9.82984C8.98002 9.58984 9.06002 9.36984 9.23002 9.21984C9.40002 9.06984 9.63002 8.97984 9.89002 8.99984C10.14 9.01984 10.39 9.12984 10.59 9.30984L23.67 21.5198C23.86 21.6998 23.98 21.9298 24 22.1698C24.02 22.4098 23.94 22.6298 23.77 22.7798C23.6 22.9298 23.37 23.0098 23.11 22.9898C22.86 22.9698 22.61 22.8598 22.41 22.6798V22.6898Z" fill="black"/>
<path d="M23.11 9.0001C23.36 8.9801 23.6 9.0601 23.77 9.2101C23.94 9.3601 24.02 9.5901 24 9.8201C23.98 10.0601 23.86 10.2901 23.67 10.4701L10.59 22.6901C10.4 22.8701 10.15 22.9801 9.89002 23.0001C9.64002 23.0201 9.40002 22.9401 9.23002 22.7901C9.06002 22.6401 8.98002 22.4101 9.00002 22.1801C9.02002 21.9401 9.14002 21.7101 9.33002 21.5301L22.41 9.3101C22.6 9.1301 22.85 9.0201 23.11 9.0001Z" fill="black"/>
</g>
<defs>
<clipPath id="clip0_95_17332">
<rect width="17" height="16" fill="white" transform="translate(8 8)"/>
</clipPath>
</defs>
</svg>
